<svg xmlns="http://www.w3.org/2000/svg" viewBox="0 0 500 500" width="100%" height="100%">
  <rect width="100%" height="100%" fill="#F5F0E6" rx="20" />

  <g transform="translate(250, 250)">
    <circle r="180" fill="none" stroke="#5C3A21" stroke-width="5" stroke-dasharray="15, 7" />
    <circle r="165" fill="none" stroke="#2E5A44" stroke-width="2" />

    <g transform="translate(0, -50)">
      <path d="M -40,-20 C -70,-20 -70,-60 -40,-60 C -40,-80 -10,-90 0,-70 C 10,-90 40,-80 40,-60 C 70,-60 70,-20 40,-20 Z" fill="none" stroke="#2E5A44" stroke-width="4" stroke-linejoin="round" />
      
      <path d="M -45,-10 C -45,-20 45,-20 45,-10 C 45,5 -45,5 -45,-10 Z" fill="#5C3A21" />
      
      <path d="M -15,-50 L -15,-25 M -20,-50 L -20,-35 M -10,-50 L -10,-35" stroke="#2E5A44" stroke-width="3" stroke-linecap="round" /> <path d="M 15,-50 C 15,-35 25,-35 15,-25 L 15,-25" fill="none" stroke="#2E5A44" stroke-width="3" stroke-linecap="round" /> <path d="M 50,-40 C 65,-50 65,-30 50,-20 C 45,-30 45,-45 50,-40 Z" fill="#C29B68" />
      <path d="M -50,-40 C -65,-50 -65,-30 -50,-20 C -45,-30 -45,-45 -50,-40 Z" fill="#C29B68" />
    </g>

    <text y="60" font-family="'Impact', 'Arial Black', sans-serif" font-size="42" font-weight="900" fill="#2E5A44" text-anchor="middle" letter-spacing="4">
      MOUSF00D
    </text>
    
    <path d="M -80,90 L -10,90 Q 0,85 10,90 L 80,90" fill="none" stroke="#C29B68" stroke-width="2" />
    <circle r="4" cy="90" cx="0" fill="#2E5A44" />

    <text y="125" font-family="'Montserrat', 'Helvetica', sans-serif" font-size="14" font-weight="600" fill="#5C3A21" text-anchor="middle" letter-spacing="6">
      RESTAURANT • SAVEURS NATURE
    </text>
  </g>
</svg>
